<svg width="200" height="250" viewBox="0 0 200 250" xmlns="http://www.w3.org/2000/svg">
  <defs>
    <linearGradient id="jGradient" x1="0%" y1="0%" x2="0%" y2="100%">
      <stop offset="0%" style="stop-color:#1ED760;stop-opacity:1" />
      <stop offset="100%" style="stop-color:#15833C;stop-opacity:1" />
    </linearGradient>
    <linearGradient id="mGradient" x1="0%" y1="0%" x2="0%" y2="100%">
      <stop offset="0%" style="stop-color:#1DB954;stop-opacity:1" />
      <stop offset="100%" style="stop-color:#121212;stop-opacity:1" />
    </linearGradient>
  </defs>

  <path d="M110 20 C130 20 130 20 130 20 L130 160 C130 190 110 210 80 210 C50 210 30 190 30 160 L30 150 C30 140 38 135 45 135 C52 135 60 140 60 150 L60 160 C60 175 70 185 80 185 C90 185 100 175 100 160 L100 20 Z" 
        fill="url(#jGradient)" />

  <g transform="translate(100, 110) scale(0.8)">
    <path d="M10 100 L10 20 C10 10 15 5 25 5 C35 5 40 10 45 20 L60 50 L75 20 C80 10 85 5 95 5 C105 5 110 10 110 20 L110 100" 
          stroke="url(#mGradient)" stroke-width="22" fill="none" stroke-linecap="round" stroke-linejoin="round" />
    
    <rect x="30" y="45" width="6" height="30" rx="3" fill="#121212" opacity="0.6" />
    <rect x="45" y="35" width="6" height="50" rx="3" fill="#121212" opacity="0.6" />
    <rect x="60" y="55" width="6" height="20" rx="3" fill="#121212" opacity="0.6" />
    <rect x="75" y="35" width="6" height="50" rx="3" fill="#121212" opacity="0.6" />
  </g>
</svg>